Coordinates
version=1
nRows=29
nColumns=24
inDegrees=yes

Units are S.I. units (second, meters, Newtons, ...)
Angles are in degrees.

endheader
time	pelvis_tilt	pelvis_list	pelvis_rotation	pelvis_tx	pelvis_ty	pelvis_tz	hip_flexion_r	hip_adduction_r	hip_rotation_r	knee_angle_r	ankle_angle_r	subtalar_angle_r	mtp_angle_r	hip_flexion_l	hip_adduction_l	hip_rotation_l	knee_angle_l	ankle_angle_l	subtalar_angle_l	mtp_angle_l	lumbar_extension	lumbar_bending	lumbar_rotation
      4.98500000	     33.90015477	      8.73549596	      6.44131170	     -0.20228127	      0.65657456	     -0.29032880	    -12.89357362	     -5.25488064	    -17.13384813	     -1.56943653	     11.51611224	     13.22512324	      0.00000000	    -44.97031177	      2.82251298	      4.40846158	    -20.84533763	     23.91145921	     15.58249117	      0.00000000	    -63.43412820	     -2.46666175	     -7.26134063
      4.99000000	     33.98581410	      8.62621157	      6.52653287	     -0.19656420	      0.65653833	     -0.29012276	    -13.00238751	     -5.04256561	    -16.77644517	     -2.18893698	     11.42491127	     13.36457080	      0.00000000	    -45.10335256	      2.53291001	      4.47552734	    -21.75560132	     23.40396241	     15.72851005	      0.00000000	    -63.40972949	     -2.24530749	     -7.33630906
      4.99500000	     34.15993609	      8.55070908	      6.60722999	     -0.19104241	      0.65659474	     -0.28983125	    -13.17084961	     -4.84857155	    -16.31426716	     -2.92898766	     11.14975718	     13.18250300	      0.00000000	    -45.25228235	      2.25264632	      4.55098800	    -22.77647565	     22.85689872	     15.91756980	      0.00000000	    -63.53616842	     -2.04776041	     -7.52347328
      5.00000000	     34.31605502	      8.43685304	      6.72631176	     -0.18532125	      0.65671290	     -0.28962287	    -13.34569286	     -4.60586337	    -15.82566190	     -3.71804187	     10.86239391	     12.88639705	      0.00000000	    -45.37837205	      1.92010121	      4.61085176	    -23.80678657	     22.16944426	     16.09742394	      0.00000000	    -63.58552985	     -1.78215541	     -7.66441194
      5.00500000	     34.47129858	      8.29684106	      6.84526588	     -0.17953678	      0.65686775	     -0.28942646	    -13.50679468	     -4.33536226	    -15.27385704	     -4.58376268	     10.55011922	     12.46802885	      0.00000000	    -45.47541029	      1.56839452	      4.63517703	    -24.87432305	     21.39033977	     16.29024296	      0.00000000	    -63.61842381	     -1.49502566	     -7.78483707
      5.01000000	     34.61888116	      8.16321925	      6.96608881	     -0.17379700	      0.65708074	     -0.28920972	    -13.67034513	     -4.07289768	    -14.77115850	     -5.45361832	     10.11715272	     12.17539112	      0.00000000	    -45.49661635	      1.21987413	      4.60532607	    -26.04004353	     20.50547900	     16.47140067	      0.00000000	    -63.66598730	     -1.23033135	     -7.89146341
      5.01500000	     34.75815516	      7.99828535	      7.08632313	     -0.16795742	      0.65730256	     -0.28899289	    -13.80002419	     -3.76617292	    -14.09207860	     -6.40661360	      9.73749551	     11.49888204	      0.00000000	    -45.49510243	      0.84866170	      4.55543970	    -27.21268736	     19.52714401	     16.66779096	      0.00000000	    -63.66923694	     -0.92782428	     -8.00523955
      5.02000000	     34.88138457	      7.82783195	      7.18703126	     -0.16212275	      0.65756423	     -0.28875694	    -13.92243065	     -3.45810443	    -13.42567283	     -7.34521306	      9.29745090	     10.89730875	      0.00000000	    -45.42232943	      0.48873521	      4.43682873	    -28.45581758	     18.41710027	     16.85281232	      0.00000000	    -63.66393799	     -0.65091547	     -8.08902353
      5.02500000	     34.99224992	      7.64988100	      7.28586301	     -0.15627971	      0.65785095	     -0.28848838	    -14.02827133	     -3.13596770	    -12.73590205	     -8.30171308	      8.86492473	     10.23561096	      0.00000000	    -45.29202919	      0.12039631	      4.26966917	    -29.74335929	     17.18443922	     17.02380963	      0.00000000	    -63.64592949	     -0.37999810	     -8.16551375
      5.03000000	     35.09245461	      7.46810951	      7.38190287	     -0.15041525	      0.65815987	     -0.28821492	    -14.13521125	     -2.80424170	    -12.04705430	     -9.24429412	      8.46270346	      9.54788202	      0.00000000	    -45.10746306	     -0.24843239	      4.06563650	    -31.07453635	     15.82582889	     17.17226303	      0.00000000	    -63.60846899	     -0.11139398	     -8.24040734
      5.03500000	     35.17986207	      7.28668247	      7.48352132	     -0.14453497	      0.65849552	     -0.28790792	    -14.24026118	     -2.46161303	    -11.35762020	    -10.17904558	      8.10351077	      8.83098964	      0.00000000	    -44.86507731	     -0.62887805	      3.81886789	    -32.44019306	     14.33022354	     17.29006799	      0.00000000	    -63.55806817	      0.14490477	     -8.31158331
      5.04000000	     35.25644009	      7.09965232	      7.57336663	     -0.13864734	      0.65883940	     -0.28760978	    -14.34917569	     -2.11157179	    -10.69011607	    -11.08748072	      7.81453868	      8.10094581	      0.00000000	    -44.56592938	     -1.00157762	      3.53771305	    -33.84449829	     12.70991782	     17.36894073	      0.00000000	    -63.48874817	      0.40104909	     -8.38090887
      5.04500000	     35.32085826	      6.92173669	      7.67994094	     -0.13274970	      0.65920664	     -0.28726124	    -14.46595516	     -1.75392179	    -10.04981230	    -11.97445970	      7.59805334	      7.37538653	      0.00000000	    -44.20905338	     -1.39226948	      3.22766479	    -35.27171237	     10.95410980	     17.39247242	      0.00000000	    -63.40847723	      0.64138696	     -8.45212691
      5.05000000	     35.37868807	      6.74697393	      7.78617889	     -0.12686128	      0.65958105	     -0.28692234	    -14.60087303	     -1.39432636	     -9.45945799	    -12.82073229	      7.47255520	      6.66676858	      0.00000000	    -43.79809712	     -1.77977593	      2.89588184	    -36.72815304	      9.09209254	     17.35121449	      0.00000000	    -63.31790726	      0.88200523	     -8.52841227
      5.05500000	     35.35969599	      6.55908774	      7.85552740	     -0.12092722	      0.65990617	     -0.28653239	    -14.65619847	     -1.03222849	     -8.82376460	    -13.66143373	      7.50209085	      5.95999385	      0.00000000	    -43.26698465	     -2.14541979	      2.51638244	    -38.20152417	      7.14654064	     17.30367170	      0.00000000	    -63.13604223	      1.07825974	     -8.54172548
      5.06000000	     35.41031035	      6.40336622	      7.98108358	     -0.11507681	      0.66030529	     -0.28621271	    -14.84660525	     -0.67812414	     -8.37489678	    -14.41035569	      7.55334341	      5.35166362	      0.00000000	    -42.75774421	     -2.53286929	      2.17585805	    -39.69230003	      5.11530512	     17.08948915	      0.00000000	    -63.03951968	      1.31914098	     -8.64214834
      5.06500000	     35.48455583	      6.25779762	      8.13505607	     -0.10925733	      0.66073369	     -0.28587526	    -15.09838523	     -0.31405290	     -8.03589773	    -15.10668022	      7.68066010	      4.79716096	      0.00000000	    -42.23362440	     -2.94778705	      1.82768406	    -41.17815755	      3.04261357	     16.77677759	      0.00000000	    -62.97161386	      1.56086009	     -8.75096583
      5.07000000	     35.53708101	      6.11586554	      8.27824037	     -0.10345263	      0.66114693	     -0.28554895	    -15.35944480	      0.04337151	     -7.74080713	    -15.74056171	      7.91813130	      4.27661649	      0.00000000	    -41.64921185	     -3.34324101	      1.48411181	    -42.66694025	      0.97275435	     16.40537168	      0.00000000	    -62.87899908	      1.79675005	     -8.85045027
      5.07500000	     35.56609661	      5.98255528	      8.42024921	     -0.09767670	      0.66155159	     -0.28524965	    -15.62353681	      0.38890286	     -7.48057112	    -16.32531996	      8.24558314	      3.81605784	      0.00000000	    -41.00508620	     -3.71582473	      1.16148454	    -44.15152070	     -1.04552064	     15.94804245	      0.00000000	    -62.76406927	      2.02365016	     -8.94304521
      5.08000000	     35.59626497	      5.85877048	      8.56643652	     -0.09196238	      0.66196646	     -0.28494269	    -15.91983880	      0.72622302	     -7.30473879	    -16.85030541	      8.63931427	      3.43824841	      0.00000000	    -40.32861977	     -4.08817538	      0.82833407	    -45.62138545	     -2.97189876	     15.41318725	      0.00000000	    -62.66311164	      2.24364930	     -9.02268860
      5.08500000	     35.62337617	      5.74248440	      8.71403328	     -0.08628184	      0.66238450	     -0.28463298	    -16.24215539	      1.05741413	     -7.19085546	    -17.32142219	      9.08908124	      3.13306533	      0.00000000	    -39.62596731	     -4.44619790	      0.51959636	    -47.06920412	     -4.75187450	     14.80175223	      0.00000000	    -62.56002576	      2.44103213	     -9.09570486
      5.09000000	     35.65146089	      5.62918615	      8.85764459	     -0.08062550	      0.66281161	     -0.28432530	    -16.60798365	      1.38596290	     -7.12327682	    -17.70875198	      9.59691234	      2.91370040	      0.00000000	    -38.90677120	     -4.79218625	      0.22915016	    -48.49127375	     -6.33941831	     14.16236608	      0.00000000	    -62.46147897	      2.62892212	     -9.14596455
      5.09500000	     35.66269549	      5.53361489	      8.98572261	     -0.07511258	      0.66322930	     -0.28411997	    -16.96478482	      1.66893907	     -7.11360369	    -18.06302552	     10.14301398	      2.76253693	      0.00000000	    -38.13635397	     -5.07431137	     -0.02858498	    -49.91301429	     -7.66744217	     13.44288951	      0.00000000	    -62.37820676	      2.83456863	     -9.21030227
      5.10000000	     35.67160200	      5.44387984	      9.11022978	     -0.06961875	      0.66365829	     -0.28387922	    -17.35694155	      1.94806782	     -7.14854858	    -18.34266374	     10.71637958	      2.69999974	      0.00000000	    -37.35505863	     -5.34486642	     -0.26871785	    -51.29984252	     -8.71454593	     12.73954482	      0.00000000	    -62.29527676	      3.01215684	     -9.25046227
      5.10500000	     35.72472105	      5.33592267	      9.21722617	     -0.06404087	      0.66413061	     -0.28363258	    -17.85770880	      2.25919533	     -7.14599285	    -18.51190276	     11.32021454	      2.67789107	      0.00000000	    -36.64977298	     -5.61866331	     -0.50424208	    -52.60525119	     -9.46510174	     12.09101073	      0.00000000	    -62.22243785	      3.17010414	     -9.20577057
      5.11000000	     35.77284192	      5.24882698	      9.29578631	     -0.05864561	      0.66460042	     -0.28343764	    -18.34715395	      2.51734585	     -7.20164519	    -18.66738868	     11.90782042	      2.72836135	      0.00000000	    -35.91222630	     -5.82269862	     -0.72469581	    -53.90633869	     -9.87157565	     11.37940602	      0.00000000	    -62.19301999	      3.31625317	     -9.18131123
      5.11500000	     35.82011976	      5.17430528	      9.35201122	     -0.05329257	      0.66508956	     -0.28323403	    -18.86452759	      2.75279344	     -7.26483309	    -18.76203605	     12.49145837	      2.83283131	      0.00000000	    -35.17519086	     -5.98842484	     -0.93533274	    -55.16088511	     -9.96138061	     10.73493682	      0.00000000	    -62.17164673	      3.43353916	     -9.14488402
      5.12000000	     35.87060268	      5.10779292	      9.37927150	     -0.04797364	      0.66560615	     -0.28302931	    -19.41301489	      2.96650753	     -7.32367114	    -18.79620055	     13.05050607	      2.97153068	      0.00000000	    -34.44825752	     -6.11288321	     -1.14383812	    -56.35966134	     -9.76477655	     10.13294488	      0.00000000	    -62.16169374	      3.52326475	     -9.08811825
      5.12500000	     35.82425968	      5.06596212	      9.45718750	     -0.04275941	      0.66609940	     -0.28290650	    -19.86966249	      3.13176959	     -7.51898563	    -18.80280570	     13.61494574	      3.28239483	      0.00000000	    -33.56303853	     -6.19818982	     -1.26207481	    -57.57188938	     -9.40075364	      9.53739633	      0.00000000	    -62.08282498	      3.63136334	     -9.08108754
